HIERARCHY
ROOT Pelvis
{
	OFFSET 0.000000 0.000000 0.000000
	CHANNELS 6 Xposition Yposition Zposition Xrotation Yrotation Zrotation
	JOINT LeftUpLeg_virtual
	{
		OFFSET 0.000000 0.000000 0.000000
		CHANNELS 3 Xrotation Yrotation Zrotation
		JOINT LeftUpLeg
		{
			OFFSET 18.735201 -5.666702 -4.541200
			CHANNELS 3 Xrotation Yrotation Zrotation
			JOINT LeftLeg
			{
				OFFSET -0.021200 -31.938179 0.493100
				CHANNELS 3 Xrotation Yrotation Zrotation
				JOINT LeftFoot
				{
					OFFSET 0.021200 -31.938179 -4.336299
					CHANNELS 3 Xrotation Yrotation Zrotation
					JOINT LeftToeBase
					{
						OFFSET 0.943001 -26.722000 15.023500
						CHANNELS 3 Xrotation Yrotation Zrotation
						End Site
						{
							OFFSET 0 0 0
						}
					}
				}
			}
		}
	}
	JOINT RightUpLeg_virtual
	{
		OFFSET 0.000000 0.000000 0.000000
		CHANNELS 3 Xrotation Yrotation Zrotation
		JOINT RightUpLeg
		{
			OFFSET -18.735201 -5.666702 -4.541200
			CHANNELS 3 Xrotation Yrotation Zrotation
			JOINT RightLeg
			{
				OFFSET 0.018946 -31.938133 0.493100
				CHANNELS 3 Xrotation Yrotation Zrotation
				JOINT RightFoot
				{
					OFFSET -0.018946 -31.938126 -4.336299
					CHANNELS 3 Xrotation Yrotation Zrotation
					JOINT RightToeBase
					{
						OFFSET -0.943001 -26.722004 15.023500
						CHANNELS 3 Xrotation Yrotation Zrotation
						End Site
						{
							OFFSET 0 0 0
						}
					}
				}
			}
		}
	}
	JOINT Hips_virtual
	{
		OFFSET 0.000000 0.000000 0.000000
		CHANNELS 3 Xrotation Yrotation Zrotation
		JOINT Hips
		{
			OFFSET -0.000000 -0.000000 -0.000000
			CHANNELS 3 Xrotation Yrotation Zrotation
			JOINT Spine
			{
				OFFSET 0.000000 10.199997 -0.299500
				CHANNELS 3 Xrotation Yrotation Zrotation
				JOINT Spine1
				{
					OFFSET 0.000000 11.900002 -1.516600
					CHANNELS 3 Xrotation Yrotation Zrotation
					JOINT Spine2
					{
						OFFSET 0.000000 13.600006 -2.842500
						CHANNELS 3 Xrotation Yrotation Zrotation
						JOINT Neck_virtual
						{
							OFFSET 0.000000 0.000000 0.000000
							CHANNELS 3 Xrotation Yrotation Zrotation
							JOINT Neck
							{
								OFFSET 0.000000 9.624100 -2.890100
								CHANNELS 3 Xrotation Yrotation Zrotation
								JOINT Head
								{
									OFFSET 0.000000 14.068802 -1.351900
									CHANNELS 3 Xrotation Yrotation Zrotation
									End Site
									{
										OFFSET 0 0 0
									}
								}
							}
						}
						JOINT LeftShoulder_virtual
						{
							OFFSET 0.000000 0.000000 0.000000
							CHANNELS 3 Xrotation Yrotation Zrotation
							JOINT LeftShoulder
							{
								OFFSET 15.263000 10.923401 -0.547700
								CHANNELS 3 Xrotation Yrotation Zrotation
								JOINT LeftArm
								{
									OFFSET 25.438599 -2.830597 -13.032500
									CHANNELS 3 Xrotation Yrotation Zrotation
									JOINT LeftForeArm
									{
										OFFSET 29.960503 0.000000 0.000000
										CHANNELS 3 Xrotation Yrotation Zrotation
										JOINT LeftHand
										{
											OFFSET 27.849251 0.000000 0.000000
											CHANNELS 3 Xrotation Yrotation Zrotation
											End Site
											{
												OFFSET 0 0 0
											}
										}
									}
								}
							}
						}
						JOINT RightShoulder_virtual
						{
							OFFSET 0.000000 0.000000 0.000000
							CHANNELS 3 Xrotation Yrotation Zrotation
							JOINT RightShoulder
							{
								OFFSET -15.263000 10.923401 -0.547700
								CHANNELS 3 Xrotation Yrotation Zrotation
								JOINT RightArm
								{
									OFFSET -25.438599 -2.830597 -13.032500
									CHANNELS 3 Xrotation Yrotation Zrotation
									JOINT RightForeArm
									{
										OFFSET -29.960503 0.000000 0.000000
										CHANNELS 3 Xrotation Yrotation Zrotation
										JOINT RightHand
										{
											OFFSET -27.849251 0.000000 0.000000
											CHANNELS 3 Xrotation Yrotation Zrotation
											End Site
											{
												OFFSET 0 0 0
											}
										}
									}
								}
							}
						}
					}
				}
			}
		}
	}
}
MOTION
Frames: 8
Frame Time: 0.03333333
10.448727 80.070496 -8.396881 0.000000 0.000000 0.000000 57.555361 -5.930109 4.437678 -98.283547 -6.820994 5.486574 59.102173 8.758038 -4.835724 -15.045629 13.706590 -3.572215 0.000000 0.000000 0.000000 57.555361 -5.930109 4.437678 -64.856410 7.731797 -5.746500 60.554217 2.983904 -5.453704 9.736088 -2.663702 7.640507 0.000000 0.000000 0.000000 57.555361 -5.930109 4.437678 -0.000003 0.000000 0.000000 6.536188 0.283898 -0.691020 15.303519 1.438345 -1.025663 0.000000 0.000000 0.000000 25.968668 1.556335 -0.351283 -9.045084 0.029329 1.349207 0.000000 0.000000 0.000000 25.968668 1.556335 -0.351283 3.421665 -11.322881 2.011317 -28.741040 -37.156516 -25.888784 0.000011 -44.996634 -0.000003 0.000000 0.000000 0.000000 25.968668 1.556335 -0.351283 1.084079 32.109300 6.795036 -35.612381 36.638699 9.333342 0.000003 24.893099 -0.000000 0.000000 0.000000 0.000000 
10.380911 81.879074 -7.483994 0.000000 0.000000 0.000000 55.093566 -6.821050 4.239213 -92.492830 -6.676959 6.213547 55.295026 8.926554 -4.869807 -14.471523 13.956668 -3.376939 0.000000 0.000000 0.000000 55.093566 -6.821050 4.239213 -69.322896 8.230548 -4.991507 64.840898 2.632892 -4.939582 6.169268 -2.762260 6.910046 0.000000 0.000000 0.000000 55.093566 -6.821050 4.239213 0.000000 0.000000 0.000000 6.429682 0.280908 -0.611255 15.063531 1.404744 -0.847226 0.000000 0.000000 0.000000 25.668443 1.557015 -0.177842 -8.772161 0.106705 1.294854 0.000000 0.000000 0.000000 25.668443 1.557015 -0.177842 3.359785 -11.332868 0.850118 -25.850594 -35.679720 -27.707661 -0.000016 -43.985267 -0.000008 0.000000 0.000000 0.000000 25.668443 1.557015 -0.177842 0.611273 31.893637 8.610644 -33.996819 35.443757 11.882226 0.000006 24.919380 0.000003 0.000000 0.000000 0.000000 
10.253819 83.479248 -6.651237 0.000000 0.000000 0.000000 52.446714 -7.818594 4.052104 -86.857357 -6.403477 7.109424 52.009664 8.934493 -4.943330 -14.051572 14.275670 -3.229201 0.000000 0.000000 0.000000 52.446714 -7.818594 4.052104 -71.973897 8.051636 -5.033635 65.825320 0.488659 -4.361443 2.831384 -2.793448 6.061722 0.000000 0.000000 0.000000 52.446714 -7.818594 4.052104 -0.000002 0.000000 0.000000 6.344623 0.257648 -0.513228 14.862679 1.352664 -0.606152 0.000000 0.000000 0.000000 25.397855 1.548555 0.060529 -8.508646 0.186898 1.215585 0.000000 0.000000 0.000000 25.397855 1.548555 0.060529 3.282056 -11.154453 -0.322866 -23.304158 -34.650154 -30.083333 0.000009 -41.915935 0.000009 0.000000 0.000000 0.000000 25.397855 1.548555 0.060529 0.383120 31.571569 9.612378 -32.161906 33.923692 14.344972 0.000008 24.743663 -0.000009 0.000000 0.000000 0.000000 
10.092587 84.991035 -5.822235 0.000000 0.000000 0.000000 49.853564 -8.849126 3.720272 -81.392707 -6.049321 8.135487 48.846357 8.913816 -5.020080 -13.643509 14.492635 -3.119886 0.000000 0.000000 0.000000 49.853564 -8.849126 3.720272 -72.862614 6.932109 -5.340236 63.896590 -2.340177 -3.715641 -0.688549 -2.737180 4.433699 0.000000 0.000000 0.000000 49.853564 -8.849126 3.720272 -0.000001 0.000000 0.000000 6.230124 0.253799 -0.386371 14.598358 1.342921 -0.303597 0.000000 0.000000 0.000000 25.054384 1.591057 0.352063 -8.267164 0.251088 1.128310 0.000000 0.000000 0.000000 25.054384 1.591057 0.352063 3.185949 -10.858426 -1.510809 -21.370284 -33.790407 -32.751317 -0.000004 -39.584344 0.000006 0.000000 0.000000 0.000000 25.054384 1.591057 0.352063 0.370554 30.945927 9.971292 -30.635635 32.079947 17.167387 0.000009 24.089845 -0.000016 0.000000 0.000000 0.000000 
9.799757 86.312660 -4.994919 0.000000 0.000000 0.000000 47.468712 -9.778127 3.275792 -76.379670 -5.744137 9.166478 46.006423 8.864312 -4.978623 -13.265182 14.723864 -3.258070 0.000000 0.000000 0.000000 47.468712 -9.778127 3.275792 -72.465787 5.711187 -5.906034 59.392115 -2.349660 -3.039413 -3.173234 -2.750170 4.344312 0.000000 0.000000 0.000000 47.468712 -9.778127 3.275792 -0.000001 0.000000 0.000000 6.025463 0.235416 -0.293739 14.142142 1.325229 -0.038995 0.000000 0.000000 0.000000 24.509808 1.618867 0.606509 -8.027076 0.295876 1.125534 0.000000 0.000000 0.000000 24.509808 1.618867 0.606509 3.110104 -10.528957 -2.364153 -19.965399 -32.730376 -35.749811 0.000005 -37.322114 -0.000012 0.000000 0.000000 0.000000 24.509808 1.618867 0.606509 0.278573 30.262663 10.663074 -29.109826 29.813977 19.562246 -0.000002 23.471631 0.000011 0.000000 0.000000 0.000000 
9.353802 87.464882 -4.124634 0.000000 0.000000 0.000000 44.888413 -10.602525 2.924045 -71.273488 -5.284169 10.101959 43.432036 8.790543 -4.850980 -13.007639 15.016816 -3.628940 0.000000 0.000000 0.000000 44.888413 -10.602525 2.924045 -70.707771 5.025234 -6.598250 52.650001 0.138306 -2.665022 -4.214784 -2.899745 5.985258 0.000000 0.000000 0.000000 44.888413 -10.602525 2.924045 0.000002 0.000000 0.000000 5.826270 0.207966 -0.240986 13.694042 1.268938 0.141102 0.000000 0.000000 0.000000 23.964999 1.592475 0.784296 -7.774100 0.346544 1.134289 0.000000 0.000000 0.000000 23.964999 1.592475 0.784296 3.041434 -10.411233 -3.090809 -18.573914 -31.593839 -38.305975 0.000000 -35.261763 -0.000001 0.000000 0.000000 0.000000 23.964999 1.592475 0.784296 0.212396 29.657293 11.250802 -27.771740 27.488836 21.814770 -0.000005 23.160709 0.000003 0.000000 0.000000 0.000000 
8.824980 88.395859 -3.228500 0.000000 0.000000 0.000000 41.847152 -11.217653 2.622650 -66.022630 -4.551764 10.836347 41.369530 8.744225 -4.662358 -12.965310 15.088743 -4.174201 0.000000 0.000000 0.000000 41.847152 -11.217653 2.622650 -67.612978 4.392266 -7.124612 45.090317 1.564346 -2.625863 -4.680370 -2.951538 6.903904 0.000000 0.000000 0.000000 41.847152 -11.217653 2.622650 0.000000 0.000000 0.000000 5.695836 0.196435 -0.183316 13.384583 1.190050 0.286524 0.000000 0.000000 0.000000 23.551102 1.535540 0.932192 -7.497538 0.398097 1.070671 0.000000 0.000000 0.000000 23.551102 1.535540 0.932192 2.974452 -10.466718 -3.738945 -17.231505 -30.703111 -40.381205 0.000001 -33.406708 0.000005 0.000000 0.000000 0.000000 23.551102 1.535540 0.932192 0.339245 28.878566 11.192384 -26.898429 25.377592 24.462247 -0.000008 23.007421 0.000003 0.000000 0.000000 0.000000 
8.256554 89.116341 -2.326330 0.000000 0.000000 0.000000 38.620389 -11.308368 2.211360 -60.989607 -3.725782 11.262202 39.607157 8.743488 -4.391480 -12.904199 14.693564 -4.855735 0.000000 0.000000 0.000000 38.620389 -11.308368 2.211360 -63.686364 3.420064 -7.900627 37.863584 1.087696 -2.498056 -4.352033 -2.883393 7.050484 0.000000 0.000000 0.000000 38.620389 -11.308368 2.211360 -0.000003 0.000000 0.000000 5.560916 0.168432 -0.115465 13.067548 1.029197 0.414872 0.000000 0.000000 0.000000 23.121300 1.394240 1.076155 -7.170035 0.410612 1.012640 0.000000 0.000000 0.000000 23.121300 1.394240 1.076155 2.914211 -10.535452 -4.220680 -15.941569 -30.177777 -42.075878 0.000007 -31.787523 -0.000008 0.000000 0.000000 0.000000 23.121300 1.394240 1.076155 0.506604 27.858549 11.089681 -26.151852 23.575441 27.060567 0.000000 23.083048 -0.000013 0.000000 0.000000 0.000000 
